<svg version="1.1" xmlns="http://www.w3.org/2000/svg" xmlns:xlink="http://www.w3.org/1999/xlink" viewBox="0 0 172 172"><g fill="none" fill-rule="nonzero" stroke="none" stroke-width="1" stroke-linecap="butt" stroke-linejoin="miter" stroke-miterlimit="10" stroke-dasharray="" stroke-dashoffset="0" font-family="none" font-weight="none" font-size="none" text-anchor="none" style="mix-blend-mode: normal"><path d="M0,172v-172h172v172z" fill="none"></path><g fill="#fec610"><path d="M86,3.44c-47.39406,0 -86,33.98344 -86,76.325c0,20.80125 9.54063,39.47938 24.8325,53.32c-2.31125,7.13531 -7.47125,12.76563 -12.685,17.0925c-2.80844,2.32469 -5.49594,4.31344 -7.6325,6.235c-1.06156,0.95406 -2.02906,1.92156 -2.795,3.1175c-0.76594,1.19594 -1.45125,2.9025 -0.9675,4.73l0.43,1.3975l1.1825,0.7525c4.43438,2.55313 9.95719,2.99656 15.91,2.58c5.95281,-0.41656 12.44313,-1.78719 18.8125,-3.5475c12.3625,-3.41312 23.9725,-8.2775 30.1,-10.965c6.04688,1.26313 12.12063,2.0425 18.49,2.0425c47.39406,0 86,-33.98344 86,-76.325c0,-42.32812 -38.27,-76.755 -85.6775,-76.755zM86,10.32c44.10188,0 78.7975,31.69906 78.7975,69.875c0,38.14906 -35.00469,69.445 -79.12,69.445c-6.28875,0 -12.21469,-0.61812 -18.1675,-1.935l-1.1825,-0.3225l-0.9675,0.5375c-5.75125,2.53969 -17.91219,7.49813 -30.1,10.8575c-6.10062,1.67969 -12.17437,2.96969 -17.415,3.3325c-3.50719,0.24188 -5.67062,-0.59125 -8.0625,-1.1825c1.70656,-1.46469 4.04469,-3.21156 6.7725,-5.4825c5.99313,-4.97187 13.18219,-11.89219 15.695,-22.145l0.5375,-2.15l-1.72,-1.29c-15.1575,-12.84625 -24.1875,-30.53 -24.1875,-50.095c0,-38.14906 35.00469,-69.445 79.12,-69.445zM81.915,44.075c-1.03469,0 -1.3975,0.60469 -1.3975,1.29v9.03c0,1.03469 0.71219,1.29 1.3975,1.29h8.17c1.03469,0 1.3975,-0.60469 1.3975,-1.29v-9.03c0,-1.03469 -0.71219,-1.29 -1.3975,-1.29zM82.2375,69.1225c-1.03469,0 -1.3975,0.71219 -1.3975,1.3975v46.1175c0,1.03469 0.71219,1.3975 1.3975,1.3975v0.3225h7.8475c1.03469,0 1.3975,-0.71219 1.3975,-1.3975v-46.44c0,-1.03469 -0.71219,-1.3975 -1.3975,-1.3975z"></path></g></g></svg>