<svg version="1.1" xmlns="http://www.w3.org/2000/svg" xmlns:xlink="http://www.w3.org/1999/xlink" viewBox="0 0 172 172"><g fill="none" fill-rule="nonzero" stroke="none" stroke-width="1" stroke-linecap="butt" stroke-linejoin="miter" stroke-miterlimit="10" stroke-dasharray="" stroke-dashoffset="0" font-family="none" font-weight="none" font-size="none" text-anchor="none" style="mix-blend-mode: normal"><path d="M0,172v-172h172v172z" fill="none"></path><g fill="#fec610"><path d="M85.89716,23.1694c-1.89703,0.0556 -3.40633,1.60894 -3.40737,3.50678v12.11089c0,1.93863 1.57157,3.5102 3.5102,3.5102c1.93863,0 3.5102,-1.57157 3.5102,-3.5102v-12.11089c-0.00052,-0.94846 -0.38483,-1.85635 -1.06543,-2.51693c-0.6806,-0.66058 -1.59955,-1.01763 -2.54761,-0.98984zM128.29042,40.19252c-1.10185,0.00188 -2.13887,0.52103 -2.80062,1.40202l-8.60069,8.60068c-0.68881,0.63161 -1.08097,1.52328 -1.08097,2.45783c0,0.93455 0.39216,1.82622 1.08097,2.45783c0.64837,0.66129 1.5318,1.03955 2.45783,1.05237c0.92602,-0.01283 1.80946,-0.39109 2.45783,-1.05237l8.60068,-8.60069c1.20944,-0.90769 1.70165,-2.4879 1.2216,-3.92184c-0.48006,-1.43394 -1.82447,-2.39929 -3.33663,-2.39584zM44.20663,40.89868c-1.29253,0.07213 -2.44044,0.84981 -2.98674,2.02342c-0.5463,1.17362 -0.40231,2.55266 0.37465,3.5881l8.60068,8.60069c0.63161,0.68881 1.52328,1.08097 2.45783,1.08097c0.93455,0 1.82622,-0.39216 2.45783,-1.08097c0.68881,-0.63161 1.08097,-1.52328 1.08097,-2.45783c0,-0.93455 -0.39216,-1.82622 -1.08097,-2.45783l-8.60069,-8.60068c-0.66188,-0.49613 -1.47771,-0.74258 -2.30357,-0.69587zM86,47.56258c-21.22784,0.00038 -38.43617,17.20912 -38.43605,38.43696c0.00013,21.22784 17.20866,38.43638 38.43651,38.43651c21.22784,0.00013 38.43658,-17.2082 38.43696,-38.43605c0.00018,-10.19429 -4.0494,-19.97111 -11.25786,-27.17956c-7.20845,-7.20845 -16.98527,-11.25804 -27.17956,-11.25786zM86,54.58299c14.9175,-0.03966 27.78177,10.47285 30.71429,25.09933c0.93585,4.1598 0.93585,8.47556 0,12.63536c-2.93252,14.62648 -15.79678,25.13899 -30.71429,25.09933zM26.67618,82.4898c-1.93863,0 -3.5102,1.57157 -3.5102,3.5102c0,1.93863 1.57157,3.5102 3.5102,3.5102h12.11089c1.93863,0 3.5102,-1.57157 3.5102,-3.5102c0,-1.93863 -1.57157,-3.5102 -3.5102,-3.5102zM133.21293,82.4898c-1.93863,0 -3.5102,1.57157 -3.5102,3.5102c0,1.93863 1.57157,3.5102 3.5102,3.5102h12.11089c1.93863,0 3.5102,-1.57157 3.5102,-3.5102c0,-1.93863 -1.57157,-3.5102 -3.5102,-3.5102zM52.3514,116.18981c-0.77628,-0.01176 -1.53456,0.23417 -2.15617,0.6993l-8.60068,8.60069c-0.68881,0.63161 -1.08097,1.52328 -1.08097,2.45783c0,0.93455 0.39216,1.82622 1.08097,2.45783c0.63161,0.68881 1.52328,1.08097 2.45783,1.08097c0.93455,0 1.82622,-0.39216 2.45783,-1.08097l8.60069,-8.60068c0.79188,-1.05664 0.92379,-2.46828 0.34139,-3.65333c-0.5824,-1.18506 -1.78057,-1.94302 -3.10088,-1.96162zM119.85084,116.18981c-1.3567,-0.06001 -2.6263,0.66793 -3.25988,1.8691c-0.63358,1.20117 -0.51747,2.66004 0.29814,3.74586l8.60069,8.60068c0.63161,0.68881 1.52328,1.08097 2.45783,1.08097c0.93455,0 1.82622,-0.39216 2.45783,-1.08097c0.68881,-0.63161 1.08097,-1.52328 1.08097,-2.45783c0,-0.93455 -0.39216,-1.82622 -1.08097,-2.45783l-8.60068,-8.60069c-0.56594,-0.4247 -1.24702,-0.66846 -1.95392,-0.6993zM86,129.70273c-1.93863,0 -3.5102,1.57157 -3.5102,3.5102v12.11089c0,1.93863 1.57157,3.5102 3.5102,3.5102c1.93863,0 3.5102,-1.57157 3.5102,-3.5102v-12.11089c0,-1.93863 -1.57157,-3.5102 -3.5102,-3.5102z"></path></g></g></svg>