<svg version="1.1" xmlns="http://www.w3.org/2000/svg" xmlns:xlink="http://www.w3.org/1999/xlink" viewBox="0 0 172 172"><g fill="none" fill-rule="nonzero" stroke="none" stroke-width="1" stroke-linecap="butt" stroke-linejoin="miter" stroke-miterlimit="10" stroke-dasharray="" stroke-dashoffset="0" font-family="none" font-weight="none" font-size="none" text-anchor="none" style="mix-blend-mode: normal"><path d="M0,172v-172h172v172z" fill="none"></path><g fill="#fec610"><path d="M85.6775,3.3325c-0.14781,0.02688 -0.29562,0.06719 -0.43,0.1075c-1.59906,0.36281 -2.72781,1.80063 -2.6875,3.44v105.135l-21.6075,-21.6075c-0.83312,-0.86 -2.05594,-1.22281 -3.225,-0.9675c-1.29,0.22844 -2.32469,1.16906 -2.6875,2.41875c-0.36281,1.26313 0.01344,2.60688 0.9675,3.49375l27.52,27.52l2.4725,2.365l2.4725,-2.365l27.52,-27.52c1.37063,-1.37062 1.37063,-3.57437 0,-4.945c-1.37062,-1.37062 -3.57437,-1.37062 -4.945,0l-21.6075,21.6075v-105.135c0.04031,-0.99437 -0.36281,-1.94844 -1.075,-2.62031c-0.72562,-0.68531 -1.70656,-1.02125 -2.6875,-0.92719zM24.08,55.04v116.96h123.84v-116.96h-34.4c-1.23625,-0.01344 -2.39187,0.63156 -3.02344,1.70656c-0.61813,1.075 -0.61813,2.39187 0,3.46687c0.63156,1.075 1.78719,1.72 3.02344,1.70656h27.52v103.2h-110.08v-103.2h27.52c1.23625,0.01344 2.39188,-0.63156 3.02344,-1.70656c0.61813,-1.075 0.61813,-2.39187 0,-3.46687c-0.63156,-1.075 -1.78719,-1.72 -3.02344,-1.70656z"></path></g></g></svg>