<svg version="1.1" xmlns="http://www.w3.org/2000/svg" xmlns:xlink="http://www.w3.org/1999/xlink" viewBox="0 0 172 172"><g fill="none" fill-rule="nonzero" stroke="none" stroke-width="1" stroke-linecap="butt" stroke-linejoin="miter" stroke-miterlimit="10" stroke-dasharray="" stroke-dashoffset="0" font-family="none" font-weight="none" font-size="none" text-anchor="none" style="mix-blend-mode: normal"><path d="M0,172v-172h172v172z" fill="none"></path><g fill="#fec610"><path d="M150.6415,88.4635l-41.92169,-6.05344l-18.74359,-37.73856c-1.46935,-3.21691 -6.4364,-3.21655 -7.90575,0l-18.74359,37.73856l-41.92169,6.05344c-3.53335,0.39325 -5.07143,5.14346 -2.44034,7.53088l30.32015,29.3679l-7.15638,41.46192c-0.71593,3.4694 3.30696,6.40002 6.39303,4.6576l26.48874,-13.83791c2.15992,-1.12866 2.9953,-3.79282 1.86627,-5.95127c-1.12939,-2.15809 -3.79539,-2.99383 -5.95532,-1.8648l-3.93064,2.05334l5.72966,-33.19453c0.24808,-1.43591 -0.23007,-2.90158 -1.27714,-3.91594l-22.12148,-21.42686l17.5598,-2.53553c1.43517,-0.20728 2.67703,-1.10587 3.32166,-2.40396l15.82032,-31.85271l15.82032,31.85271c0.64463,1.29809 1.88649,2.19668 3.32166,2.40396l35.32395,5.10046l-25.54347,24.74154c-1.04707,1.01436 -1.52521,2.48003 -1.27714,3.91594l6.03544,34.96709l-17.3584,-9.06822c-2.16029,-1.12829 -4.82629,-0.29328 -5.95532,1.86517c-1.12939,2.15845 -0.29365,4.82262 1.86627,5.95091l25.26893,13.20063c3.08093,1.74242 7.11117,-1.1882 6.39303,-4.6576l-7.15638,-41.46192l30.32015,-29.3679c3.35584,-4.8579 -0.77584,-7.29052 -2.44108,-7.53088z"></path><ellipse cx="236.605" cy="389.381" transform="scale(0.36752,0.36752)" rx="14.008" ry="13.999"></ellipse><path d="M86.02315,27.56962c-2.43703,0 -4.41283,-1.97432 -4.41283,-4.40989v-18.74984c0,-2.43556 1.97579,-4.40989 4.41283,-4.40989c2.43703,0 4.41283,1.97432 4.41283,4.40989v18.74984c0,2.43556 -1.97543,4.40989 -4.41283,4.40989z"></path><path d="M43.17898,41.49463c-1.26207,0 -2.51495,-0.53842 -3.38781,-1.58144l-12.01574,-14.36347c-1.56344,-1.86848 -1.31462,-4.64988 0.55532,-6.21185c1.86995,-1.56233 4.65282,-1.31352 6.21589,0.55496l12.01574,14.3631c2.44108,2.72701 0.21794,7.35521 -3.3834,7.2387z"></path><path d="M128.86732,41.49463c-3.60208,0.1165 -5.82374,-4.51206 -3.3834,-7.23833l12.01574,-14.3631c1.56307,-1.86811 4.34631,-2.11692 6.21589,-0.55496c1.86958,1.56197 2.11839,4.343 0.55532,6.21185l-12.01538,14.36274c-0.87286,1.04339 -2.12611,1.58181 -3.38818,1.58181z"></path></g></g></svg>