<svg version="1.1" xmlns="http://www.w3.org/2000/svg" xmlns:xlink="http://www.w3.org/1999/xlink" viewBox="0 0 172 172"><g fill="none" fill-rule="nonzero" stroke="none" stroke-width="1" stroke-linecap="butt" stroke-linejoin="miter" stroke-miterlimit="10" stroke-dasharray="" stroke-dashoffset="0" font-family="none" font-weight="none" font-size="none" text-anchor="none" style="mix-blend-mode: normal"><path d="M0,172v-172h172v172z" fill="none"></path><g fill="#fec610"><path d="M160.3337,96.24891c14.48346,-20.18913 15.49984,-46.60274 2.18168,-65.12989c-9.04792,-12.55566 -24.02513,-20.10167 -39.10314,-19.62294c-16.6961,0.4941 -31.41296,10.91374 -37.41224,24.82576c-5.99927,-13.91202 -20.71614,-24.33166 -37.40943,-24.82579c-15.0584,-0.45491 -30.05522,7.0645 -39.10592,19.62434c-17.51637,24.33869 -8.55241,56.94562 10.23489,74.40878c6.78314,6.30862 14.41452,11.7396 21.79395,16.99145c2.71551,1.93165 5.42818,3.86189 8.09051,5.82851c14.31373,10.63943 25.18413,20.54537 34.20962,31.1736c0.54587,0.64107 1.34653,1.01061 2.18638,1.01061c0.84266,0 1.64051,-0.37092 2.18641,-1.01202c4.57996,-5.39897 9.67764,-10.59394 15.42986,-15.8076c6.67134,10.11486 18.12069,16.81263 31.11709,16.81263c20.54818,0 37.26667,-16.71708 37.26667,-37.26667c-0.00003,-10.63313 -4.49949,-20.21487 -11.66633,-27.01077zM86,153.29107c-8.87156,-10.02212 -19.43399,-19.47737 -32.98347,-29.54851c-2.6959,-1.99182 -5.43658,-3.94167 -8.17728,-5.89289c-7.23105,-5.14544 -14.70847,-10.46445 -21.21726,-16.51974c-16.96482,-15.76945 -25.1505,-45.0912 -9.48462,-66.85995c7.83016,-10.86478 21.15007,-17.66331 34.28241,-17.2434c18.81531,0.55711 34.71356,15.54972 34.71356,32.73994c0,1.58312 1.28217,2.86667 2.86667,2.86667c1.58449,0 2.86667,-1.28355 2.86667,-2.86667c0,-17.1902 15.89825,-32.18281 34.71634,-32.73991c13.02877,-0.41432 26.44947,6.37862 34.27963,17.24059c11.8215,16.44589 10.89207,39.98338 -1.97152,58.15062c-6.01627,-4.16722 -13.30173,-6.62481 -21.15778,-6.62481c-20.54818,0 -37.26667,16.71708 -37.26667,37.26667c0,5.44885 1.2036,10.61211 3.31424,15.28183c-5.4555,4.87915 -10.34706,9.73832 -14.78091,14.74957zM134.73333,154.79301c-17.38757,0 -31.53333,-14.14577 -31.53333,-31.53333c0,-17.38757 14.14577,-31.53333 31.53333,-31.53333c17.38757,0 31.53333,14.14577 31.53333,31.53333c0,17.38757 -14.14577,31.53333 -31.53333,31.53333z"></path><path d="M151.91373,120.3832h-14.33333v-14.33333c0,-1.58312 -1.28217,-2.86667 -2.86667,-2.86667c-1.58449,0 -2.86667,1.28355 -2.86667,2.86667v14.33333h-14.33333c-1.58449,0 -2.86667,1.28355 -2.86667,2.86667c0,1.58312 1.28217,2.86667 2.86667,2.86667h14.33333v14.33333c0,1.58312 1.28217,2.86667 2.86667,2.86667c1.58449,0 2.86667,-1.28355 2.86667,-2.86667v-14.33333h14.33333c1.58449,0 2.86667,-1.28355 2.86667,-2.86667c0,-1.58312 -1.28215,-2.86667 -2.86667,-2.86667z"></path></g></g></svg>