<svg version="1.1" xmlns="http://www.w3.org/2000/svg" xmlns:xlink="http://www.w3.org/1999/xlink" viewBox="0 0 172 172"><g fill="none" fill-rule="nonzero" stroke="none" stroke-width="1" stroke-linecap="butt" stroke-linejoin="miter" stroke-miterlimit="10" stroke-dasharray="" stroke-dashoffset="0" font-family="none" font-weight="none" font-size="none" text-anchor="none" style="mix-blend-mode: normal"><path d="M0,172v-172h172v172z" fill="none"></path><g fill="#fec610"><path d="M171.18838,64.59675c-1.78292,-5.33079 -6.39353,-9.21963 -11.94862,-10.07812l-41.4735,-6.41775l-18.12987,-39.33425c-2.43796,-5.33882 -7.76725,-8.76387 -13.63637,-8.76387c-5.86913,0 -11.19842,3.42505 -13.63637,8.76387l-18.12987,39.33425l-41.46812,6.41775c-5.55668,0.85502 -10.16887,4.74519 -11.94862,10.07813c-1.83571,5.3733 -0.51657,11.32191 3.4185,15.4155l30.5945,31.91137l-6.82625,42.48938c-1.01223,5.94666 1.63714,11.92097 6.72413,15.16288c4.96308,3.27165 11.40509,3.2441 16.34,-0.06988l34.93212,-22.98888l34.9375,22.99425c5.00447,3.26417 11.46595,3.25879 16.46498,-0.01371c4.99903,-3.27249 7.58878,-9.19229 6.59914,-15.08467l-6.8155,-42.48937l30.5945,-31.91138c3.92682,-4.09825 5.24116,-10.0439 3.40775,-15.4155zM160.01375,72.5625l-32.45425,33.8625c-1.16396,1.21588 -1.69114,2.90682 -1.42438,4.56875l7.24013,45.15c0.32316,1.73461 -0.44615,3.4906 -1.94037,4.429c-1.3871,0.94188 -3.20853,0.94188 -4.59563,0l-37.883,-24.97763c-1.79381,-1.18132 -4.11869,-1.18132 -5.9125,0l-37.89375,24.93463c-1.3871,0.94188 -3.20853,0.94188 -4.59562,0c-1.48893,-0.94583 -2.25788,-2.69827 -1.94575,-4.43438l7.25088,-45.15c0.26536,-1.6628 -0.26384,-3.35385 -1.42975,-4.56875l-32.4435,-33.81412c-1.15071,-1.20459 -1.53234,-2.95096 -0.989,-4.52575c0.49013,-1.53775 1.8116,-2.6633 3.40775,-2.9025l44.32225,-6.85313c1.78278,-0.27471 3.3089,-1.42535 4.0635,-3.06375l19.35,-41.925c0.67862,-1.53227 2.19686,-2.52035 3.87269,-2.52035c1.67582,0 3.19407,0.98807 3.87269,2.52035l19.35,41.95188c0.75358,1.63697 2.27735,2.78736 4.05812,3.06375l44.32763,6.85313c1.59615,0.2392 2.91762,1.36475 3.40775,2.9025c0.52924,1.57161 0.13733,3.30718 -1.01588,4.49887z"></path></g></g></svg>