<svg version="1.1" xmlns="http://www.w3.org/2000/svg" xmlns:xlink="http://www.w3.org/1999/xlink" viewBox="0 0 172 172"><g fill="none" fill-rule="nonzero" stroke="none" stroke-width="1" stroke-linecap="butt" stroke-linejoin="miter" stroke-miterlimit="10" stroke-dasharray="" stroke-dashoffset="0" font-family="none" font-weight="none" font-size="none" text-anchor="none" style="mix-blend-mode: normal"><path d="M0,172v-172h172v172z" fill="none"></path><g fill="#f1c40f"><path d="M85.87235,3.62813c-0.72195,0.0249 -1.41775,0.27642 -1.98875,0.71891l-79.12,61.7386c-1.49911,1.16886 -1.76683,3.33167 -0.59797,4.83078c1.16886,1.49911 3.33167,1.76683 4.83078,0.59797l4.76359,-3.71547v90.4411c0.00019,1.89978 1.54022,3.43981 3.44,3.44h47.58219c0.37149,0.0614 0.75054,0.0614 1.12203,0h40.15797c0.37149,0.0614 0.75054,0.0614 1.12203,0h47.61578c1.89978,-0.00019 3.43981,-1.54022 3.44,-3.44v-90.4411l4.7636,3.71547c0.96974,0.75623 2.26928,0.93763 3.40904,0.47586c1.13976,-0.46177 1.94657,-1.49654 2.11649,-2.71449c0.16992,-1.21795 -0.32287,-2.43403 -1.29273,-3.19012l-26.1964,-20.43844c-0.00027,-0.71566 0.00021,-1.54424 0,-2.62031c-0.00049,-2.51634 0.00021,-5.84135 0,-9.15765c-0.00043,-6.6326 0,-13.22922 0,-13.22922c-0.00019,-1.89978 -1.54022,-3.43981 -3.44,-3.44h-13.76c-1.89978,0.00019 -3.43981,1.54022 -3.44,3.44c0,0 0.00215,3.9803 0,7.96172c-0.00019,0.34196 0.00022,0.60118 0,0.94062l-32.2836,-25.19531c-0.64007,-0.49632 -1.43474,-0.7509 -2.24406,-0.71891zM86,11.42859l35.70344,27.85594c0.96599,0.75571 2.26124,0.94002 3.39969,0.48375c0,0 2.12978,-2.74746 2.12984,-2.74797c0.00007,-0.00051 0.01741,-0.18347 0.02016,-0.22172c0.00516,-0.07657 0.00569,-0.09779 0.00672,-0.12094c0.00155,-0.04627 0.00603,-0.06912 0.00672,-0.09406c0.00083,-0.04988 -0.00051,-0.09782 0,-0.16125c0.00103,-0.12687 -0.00083,-0.30351 0,-0.52406c0.00166,-0.44111 0.00534,-1.06575 0.00672,-1.81406c0.0018,-1.49664 0.00564,-3.48383 0.00672,-5.47578c0.00122,-2.26404 -0.00023,-2.99601 0,-4.52844h6.88c0.00002,2.2095 -0.00032,4.88108 0,9.78922c0.00022,3.31645 -0.00049,6.64074 0,9.15765c0.00024,1.25846 -0.00033,2.31207 0,3.06375c0.00033,0.75168 0.00321,0.97207 0.00672,1.27656c0.01161,1.04625 0.49872,2.03036 1.3236,2.67406l15.86969,12.38265v92.3761h-41.28v-65.36h-48.16v65.36h-41.28v-92.36937zM68.8,96.32h34.4v58.48h-34.4zM92.88,120.4c-1.89986,0 -3.44,1.54014 -3.44,3.44c0,1.89986 1.54014,3.44 3.44,3.44c1.89986,0 3.44,-1.54014 3.44,-3.44c0,-1.89986 -1.54014,-3.44 -3.44,-3.44z"></path></g></g></svg>