<svg version="1.1" xmlns="http://www.w3.org/2000/svg" xmlns:xlink="http://www.w3.org/1999/xlink" viewBox="0 0 172 172"><g fill="none" fill-rule="nonzero" stroke="none" stroke-width="1" stroke-linecap="butt" stroke-linejoin="miter" stroke-miterlimit="10" stroke-dasharray="" stroke-dashoffset="0" font-family="none" font-weight="none" font-size="none" text-anchor="none" style="mix-blend-mode: normal"><path d="M0,172v-172h172v172z" fill="none"></path><g><circle cx="49.823" cy="40.998" transform="scale(2.6875,2.6875)" r="2.5" fill="#000f20"></circle><path d="M169.84239,125.86998c1.32887,-2.28169 1.00691,-5.1644 -0.7926,-7.09669l-4.24383,-4.58756v-8.00483l4.2412,-4.58504c1.8012,-1.93129 2.12429,-4.81461 0.79523,-7.09667l-4.38818,-7.60323c-1.31319,-2.28709 -3.96723,-3.44685 -6.53767,-2.85681l-6.09673,1.37917l-6.93133,-4.00239l-1.85292,-5.96289c-0.77031,-2.52659 -3.10618,-4.24918 -5.74757,-4.23854h-8.77646c-2.63894,-0.00991 -4.97288,1.70989 -5.74507,4.23335l-1.8529,5.96813l-6.93133,4.00239l-6.09149,-1.37788c-2.57247,-0.59288 -5.22983,0.56792 -6.54291,2.8581l-4.3882,7.59797c-1.33229,2.28096 -1.01009,5.16584 0.7926,7.09667l4.24122,4.58756v8.00475l-4.23335,4.57977c-1.80808,1.92977 -2.13362,4.81811 -0.80047,7.10193l4.3882,7.60321c1.31029,2.29038 3.96657,3.45164 6.53764,2.8581l4.85798,-1.09999v31.3922c0.00216,1.388 0.71746,2.6775 1.89386,3.41413c1.1764,0.73664 2.64881,0.81703 3.89842,0.21286l14.78912,-7.18328l13.85218,7.13867c1.24969,0.64377 2.74445,0.59025 3.94489,-0.14127c1.20044,-0.73151 1.93326,-2.03541 1.93402,-3.44117v-31.39269l4.86059,1.10067c2.57154,0.59157 5.22714,-0.57044 6.53767,-2.86071zM145.99352,160.00961l-9.76844,-5.03369c-1.12844,-0.58358 -2.46617,-0.60013 -3.60869,-0.04464l-10.81036,5.25167v-14.9536c0.00234,-0.49282 0.36147,-0.91134 0.84823,-0.98847c0.48675,-0.07713 0.95769,0.20984 1.11228,0.67779c0.77262,2.52314 3.1063,4.24274 5.74507,4.23332h8.77641c2.63965,0.01032 4.97456,-1.70941 5.74768,-4.23332c0.15423,-0.46744 0.62452,-0.7542 1.11069,-0.67723c0.48617,0.07696 0.8449,0.49496 0.8472,0.98718zM133.89977,124.96461c-8.16346,0 -14.78125,-6.61779 -14.78125,-14.78125c0,-8.16346 6.61779,-14.78125 14.78125,-14.78125c8.16346,0 14.78125,6.61779 14.78125,14.78125c-0.0102,8.15923 -6.62207,14.77103 -14.7813,14.78114z" fill="#000f20"></path><path d="M13.4375,170.65625h88.6875c2.2264,0 4.03125,-1.80485 4.03125,-4.03125c0,-2.2264 -1.80485,-4.03125 -4.03125,-4.03125h-88.6875c-2.22539,-0.00243 -4.02882,-1.80586 -4.03125,-4.03125v-111.53125h25.53125c6.67618,-0.00727 12.08648,-5.41757 12.09375,-12.09375v-25.53125h90.03125c2.22539,0.00243 4.02882,1.80586 4.03125,4.03125v48.375c0,2.2264 1.80485,4.03125 4.03125,4.03125c2.2264,0 4.03125,-1.80485 4.03125,-4.03125v-48.375c-0.00727,-6.67618 -5.41757,-12.08648 -12.09375,-12.09375h-94.0625c-1.0675,0.02014 -2.08774,0.44396 -2.85531,1.18613l-37.61481,37.61481c-0.75891,0.75646 -1.18567,1.78378 -1.18613,2.85531v115.5625c0.00727,6.67618 5.41757,12.08648 12.09375,12.09375zM34.9375,38.96875h-19.83082l23.86207,-23.86207v19.83082c-0.00243,2.22539 -1.80586,4.02882 -4.03125,4.03125z" fill="#fec610"></path><path d="M59.125,25.53125h32.25c2.2264,0 4.03125,-1.80485 4.03125,-4.03125c0,-2.2264 -1.80485,-4.03125 -4.03125,-4.03125h-32.25c-2.2264,0 -4.03125,1.80485 -4.03125,4.03125c0,2.2264 1.80485,4.03125 4.03125,4.03125z" fill="#fec610"></path><path d="M59.125,41.65625h21.5c2.2264,0 4.03125,-1.80485 4.03125,-4.03125c0,-2.2264 -1.80485,-4.03125 -4.03125,-4.03125h-21.5c-2.2264,0 -4.03125,1.80485 -4.03125,4.03125c0,2.2264 1.80485,4.03125 4.03125,4.03125z" fill="#fec610"></path><path d="M122.28125,64.5c-0.00012,-2.22635 -1.8049,-4.03113 -4.03125,-4.03125h-86c-2.2264,0 -4.03125,1.80485 -4.03125,4.03125c0,2.2264 1.80485,4.03125 4.03125,4.03125h86c2.22635,-0.00012 4.03113,-1.8049 4.03125,-4.03125z" fill="#fec610"></path><path d="M32.25,100.78125h53.75c2.2264,0 4.03125,-1.80485 4.03125,-4.03125c0,-2.2264 -1.80485,-4.03125 -4.03125,-4.03125h-53.75c-2.2264,0 -4.03125,1.80485 -4.03125,4.03125c0,2.2264 1.80485,4.03125 4.03125,4.03125z" fill="#fec610"></path><path d="M92.71875,112.875c-0.00058,-2.22616 -1.80509,-4.03067 -4.03125,-4.03125h-56.4375c-2.2264,0 -4.03125,1.80485 -4.03125,4.03125c0,2.2264 1.80485,4.03125 4.03125,4.03125h56.4375c2.22616,-0.00058 4.03067,-1.80509 4.03125,-4.03125z" fill="#fec610"></path><path d="M95.40625,80.625c-0.00012,-2.22635 -1.8049,-4.03113 -4.03125,-4.03125h-59.125c-2.2264,0 -4.03125,1.80485 -4.03125,4.03125c0,2.2264 1.80485,4.03125 4.03125,4.03125h59.125c2.22635,-0.00012 4.03113,-1.8049 4.03125,-4.03125z" fill="#fec610"></path><path d="M72.22387,142.08057c-1.08779,-2.38043 -2.90787,-6.36182 -7.72387,-6.36182c-5.17948,0 -7.46673,4.57453 -8.98109,7.60321c-0.26638,0.53277 -0.62068,1.24402 -0.95137,1.85816c-0.35037,-1.37788 -0.67319,-3.16254 -0.9199,-4.52467c-1.1994,-6.62162 -2.84233,-15.6867 -10.64763,-15.6867c-10.78281,0 -14.0162,19.15895 -14.74975,25.02998c-0.17972,1.4293 0.41695,2.84587 1.56515,3.71584c1.14819,0.86997 2.67337,1.06109 4.00072,0.50134c1.32736,-0.55975 2.25512,-1.78529 2.43363,-3.21474c1.1994,-9.50859 4.77399,-17.97002 6.70564,-17.99628c1.25321,0.77688 2.27018,6.39069 2.75837,9.08606c1.05635,5.83174 2.25312,12.4403 8.03624,12.4403c5.17948,0 7.46674,-4.57453 8.98109,-7.60321c0.43304,-0.86871 1.10359,-2.20722 1.51959,-2.83448c0.21519,0.40681 0.45666,0.93434 0.64038,1.33838c1.82202,5.61129 7.15119,9.32815 13.04644,9.09931c2.2264,0 4.03125,-1.80485 4.03125,-4.03125c0,-2.2264 -1.80485,-4.03125 -4.03125,-4.03125c-3.70711,0 -4.41967,-1.55897 -5.71363,-4.38818z" fill="#fec610"></path></g></g></svg>