<svg version="1.1" xmlns="http://www.w3.org/2000/svg" xmlns:xlink="http://www.w3.org/1999/xlink" viewBox="0 0 172 172"><g fill="none" fill-rule="nonzero" stroke="none" stroke-width="1" stroke-linecap="butt" stroke-linejoin="miter" stroke-miterlimit="10" stroke-dasharray="" stroke-dashoffset="0" font-family="none" font-weight="none" font-size="none" text-anchor="none" style="mix-blend-mode: normal"><path d="M0,172v-172h172v172z" fill="none"></path><g fill="#fec610"><path d="M82.37293,0.07349c-35.45333,1.4926 -66.35277,24.59996 -77.80628,58.18542l5.1073,1.72693c11.47366,-33.59819 43.56747,-55.74305 79.05054,-54.54519c35.48307,1.19786 66.01036,25.45673 75.19201,59.75222l5.18603,-1.39099c-10.41232,-38.93637 -46.46076,-65.42455 -86.72961,-63.72839zM83.17078,24.1875c-5.85588,0.00701 -10.60127,4.75239 -10.60828,10.60828v0.99731c-0.03789,2.25298 -1.4811,4.24159 -3.61133,4.97608c-0.98363,0.38162 -1.92547,0.76165 -2.86072,1.18628c-2.03013,0.99488 -4.46581,0.61306 -6.09412,-0.95532l-0.70337,-0.70862c-4.145,-4.13682 -10.8567,-4.13682 -15.00171,0l-3.99976,3.99976c-4.13386,4.14623 -4.13386,10.85548 0,15.00171l0.70862,0.70337c1.56839,1.62831 1.95021,4.06399 0.95532,6.09412c-0.42462,0.93525 -0.81809,1.89309 -1.18628,2.86597c-0.74023,2.1252 -2.72603,3.56428 -4.97608,3.60608h-0.99731c-5.85998,0.00702 -10.60705,4.75879 -10.60828,10.61877v5.64795c0.00701,5.85588 4.75239,10.60127 10.60828,10.60828h0.99731c2.25298,0.03789 4.24159,1.4811 4.97608,3.61133c0.38162,0.98363 0.76165,1.92547 1.18628,2.86072c0.99488,2.03013 0.61306,4.46581 -0.95532,6.09412l-0.70862,0.70337c-4.13386,4.14623 -4.13386,10.85548 0,15.00171l3.99976,3.99976c4.145,4.13682 10.8567,4.13682 15.00171,0l0.70337,-0.70862c1.62831,-1.56839 4.06399,-1.95021 6.09412,-0.95532c0.93525,0.42462 1.89309,0.81809 2.86597,1.18628c2.12816,0.73626 3.56898,2.72446 3.60608,4.97608v0.99731c0.00702,5.85998 4.75879,10.60705 10.61877,10.60828h5.64795c5.85588,-0.00701 10.60127,-4.75239 10.60828,-10.60828v-0.99731c0.03789,-2.25298 1.4811,-4.24159 3.61133,-4.97608c0.98363,-0.38163 1.92547,-0.76165 2.86072,-1.18628c2.03013,-0.99488 4.46581,-0.61306 6.09412,0.95532l0.70337,0.70862c4.14623,4.13386 10.85548,4.13386 15.00171,0l3.99976,-3.99976c4.13386,-4.14623 4.13386,-10.85548 0,-15.00171l-0.70862,-0.70337c-1.56839,-1.62831 -1.95021,-4.06399 -0.95532,-6.09412c0.42462,-0.93525 0.81809,-1.89309 1.18628,-2.86597c0.73626,-2.12816 2.72446,-3.56898 4.97608,-3.60608h0.99731c5.85998,-0.00702 10.60705,-4.75879 10.60828,-10.61877v-5.64795c-0.00701,-5.85588 -4.75239,-10.60127 -10.60828,-10.60828h-0.99731c-2.2514,-0.04259 -4.2376,-1.48405 -4.97608,-3.61133c-0.38163,-0.98363 -0.76165,-1.92547 -1.18628,-2.86072c-0.99488,-2.03013 -0.61306,-4.46581 0.95532,-6.09412l0.70862,-0.70337c4.13386,-4.14623 4.13386,-10.85548 0,-15.00171l-3.99976,-3.99976c-4.14623,-4.13386 -10.85548,-4.13386 -15.00171,0l-0.70337,0.70862c-1.62831,1.56839 -4.06399,1.95021 -6.09412,0.95532c-0.93525,-0.42462 -1.89309,-0.81809 -2.86597,-1.18628c-2.12816,-0.73626 -3.56898,-2.72446 -3.60608,-4.97608v-0.99731c-0.00702,-5.85998 -4.75879,-10.60705 -10.61877,-10.60828zM83.18127,29.5625h5.64795c2.88858,0.00405 5.22923,2.3447 5.23328,5.23328v0.99731c0.02093,4.49959 2.85839,8.50394 7.09668,10.01514c0.86179,0.32787 1.71253,0.68226 2.55103,1.0603c4.06422,1.91551 8.89167,1.09417 12.09375,-2.05762l0.70337,-0.70862c2.04419,-2.04274 5.35693,-2.04274 7.40113,0l3.99976,3.99976c2.04273,2.04419 2.04273,5.35693 0,7.40112l-0.70862,0.70337c-3.15472,3.20057 -3.97639,8.02998 -2.05762,12.09375c0.37894,0.8385 0.73511,1.69371 1.0603,2.55103c1.51538,4.22904 5.51237,7.06007 10.00464,7.08618h0.99731c2.89268,0.00406 5.23502,2.35109 5.23328,5.24377v5.64795c-0.00405,2.88858 -2.3447,5.22923 -5.23328,5.23328h-0.99731c-4.49959,0.02093 -8.50394,2.85839 -10.01514,7.09668c-0.32608,0.86179 -0.68047,1.71253 -1.0603,2.55103c-1.91877,4.06377 -1.09711,8.89318 2.05762,12.09375l0.70862,0.70337c2.04274,2.04419 2.04274,5.35693 0,7.40113l-3.99976,3.99976c-2.04419,2.04273 -5.35693,2.04273 -7.40112,0l-0.70337,-0.70862c-3.2002,-3.15546 -8.03009,-3.97721 -12.09375,-2.05762c-0.8385,0.37894 -1.69371,0.73511 -2.55103,1.0603c-4.23054,1.5134 -7.06244,5.51161 -7.08618,10.00464v0.99731c-0.00406,2.89268 -2.35109,5.23502 -5.24377,5.23328h-5.64795c-2.88858,-0.00405 -5.22923,-2.3447 -5.23328,-5.23328v-0.99731c-0.02374,-4.49303 -2.85564,-8.49124 -7.08618,-10.00464c-0.86179,-0.32608 -1.71252,-0.68047 -2.55103,-1.0603c-1.45736,-0.66295 -3.03908,-1.00828 -4.64014,-1.01306c-2.79232,-0.00755 -5.47264,1.09745 -7.44836,3.07068l-0.70337,0.70862c-2.04419,2.04273 -5.35693,2.04273 -7.40112,0l-4.0155,-4.01026c-2.04273,-2.04419 -2.04273,-5.35693 0,-7.40112l0.70862,-0.70337c3.15472,-3.20057 3.97639,-8.02998 2.05762,-12.09375c-0.37894,-0.8385 -0.73511,-1.69371 -1.0603,-2.55103c-1.5134,-4.23054 -5.51161,-7.06244 -10.00464,-7.08618h-0.99731c-2.89268,-0.00406 -5.23502,-2.35109 -5.23328,-5.24377v-5.64795c0.00405,-2.88858 2.3447,-5.22923 5.23328,-5.23328h0.99731c4.49092,-0.02531 8.48751,-2.85396 10.00464,-7.08093c0.32787,-0.86179 0.68226,-1.71252 1.0603,-2.55102c1.91877,-4.06377 1.09711,-8.89318 -2.05762,-12.09375l-0.70862,-0.70337c-2.04273,-2.04419 -2.04273,-5.35693 0,-7.40112l4.01026,-4.0155c2.04419,-2.04273 5.35693,-2.04273 7.40112,0l0.70337,0.70862c3.2002,3.15546 8.03009,3.97721 12.09375,2.05762c0.8385,-0.37894 1.69371,-0.73511 2.55103,-1.0603c4.23054,-1.5134 7.06244,-5.51161 7.08618,-10.00464v-0.99731c0.00406,-2.89268 2.35109,-5.23502 5.24377,-5.23328zM84.6615,53.77625c-17.5509,0.70821 -31.30735,15.33176 -30.94277,32.89316c0.36458,17.56139 14.71611,31.60142 32.28127,31.5806c17.8032,-0.01926 32.23074,-14.4468 32.25,-32.25c0.00042,-8.78572 -3.58359,-17.19132 -9.9235,-23.27362c-6.33991,-6.08231 -14.88686,-9.31477 -23.665,-8.95013zM86,59.125c14.8359,0.01629 26.85871,12.0391 26.875,26.875c0,14.84265 -12.03235,26.875 -26.875,26.875c-14.84265,0 -26.875,-12.03235 -26.875,-26.875c0,-14.84265 12.03235,-26.875 26.875,-26.875zM2.88696,63.80713c-6.86426,25.82088 -1.34933,53.36539 14.92693,74.55311c16.27626,21.18772 41.46841,33.61632 68.18611,33.63976c2.76544,0 5.56527,-0.13555 8.3092,-0.39893l-0.5144,-5.34875c-2.57194,0.24725 -5.19868,0.37268 -7.7948,0.37268c-25.04787,-0.02228 -48.66537,-11.67447 -63.92402,-31.53826c-15.25865,-19.86379 -20.42834,-45.68692 -13.99248,-69.89387zM170.38855,69.3606l-5.27527,1.02881c0.33683,1.71642 0.61934,3.45478 0.84509,5.20703l5.33301,-0.69287c-0.23919,-1.849 -0.54539,-3.71278 -0.90283,-5.54297zM171.83203,80.45703l-5.375,0.34119c0.11108,1.72179 0.16797,3.45491 0.16797,5.20178c0.16249,39.56939 -28.54154,73.35155 -67.61792,79.58044l0.86084,5.30676c41.68198,-6.64596 72.30076,-42.67907 72.13208,-84.88721c0,-1.86154 -0.05689,-3.71009 -0.16797,-5.54297z"></path></g></g></svg>